#!OML:ASF F:\VICON\USERDATA\INSTALL\rory3\rory3.ASF
:FULLY-SPECIFIED
:DEGREES
105
root 1.291923854809057 17.91339396800412 53.0551351159689 -3.417740014916174 1.7219287497413212 -3.325298258763305
lfemur -15.45445054369113 -3.057361146058179 -18.270742585043546
ltibia 35.473544766855085
lfoot -7.469130247718605 3.2372525063891926
ltoes -11.662564713727905
rfemur -4.981731731451484 2.640868683808381 25.81672997114661
rtibia 36.11710034538425
rfoot -3.2813444188067793 -9.604998451013014
rtoes 5.09364930788637
lowerback 1.0 0.7493122678065507 3.199713055743076
upperback 0.27689841386857805 1.764066157126888 1.4307962445877724
thorax -4.801552573817742 0.9195903712123191 -0.5210962509996071
lowerneck -16.420480925554084 -3.3528666710005983 -1.5218996686588866
upperneck 21.46999285062852 -4.370534529729738 1.0586897384780949
head 9.695239574920489 -2.061380466665684 0.022836689702036478
lclavicle -1.0830351923691373e-15 -4.2373861154740817e-16
lhumerus -33.0383813462385 1.3710603649804907 84.78774922688417
lradius 22.696020045328478
lwrist 7.858336263287291
lhand -27.220526783035382 23.19377338323153
lfingers nan
lthumb -0.8837133004539067 52.77269727493756
rclavicle -1.1255304693007402e-15 -4.686604983196094e-16
rhumerus -27.955830064108874 -18.743279551738013 -77.74435252352757
rradius 29.23192881436282
rwrist 3.7358530409974806
rhand -17.479672304618674 1.0
rfingers nan
rthumb 9.123903973504396 -7.563214370999422
106
root 1.2866534169644845 17.924011155882678 53.259215507202946 -3.3610042414704435 1.7712304501954192 -3.085431894948824
lfemur -13.796573610015134 -3.163958203037068 -18.887789913509177
ltibia 30.554841410485867
lfoot -7.036293988930923 2.070697616517351
ltoes -11.628364560637438
rfemur -6.158118693208046 2.5363796801585314 25.45137194096961
rtibia 38.89421363053334
rfoot -2.582431084311086 -10.187292750886574
rtoes 6.487175294667754
lowerback 1.0 0.6692605922245044 2.8943628575821405
upperback 0.2668637881234359 1.6478890407241633 1.4076979333310802
thorax -4.8020878153796325 0.8651422700380769 -0.4168988467064252
lowerneck -16.436485996224082 -3.3539766146655565 -1.5440979916101996
upperneck 21.445864661354157 -4.37681298228413 1.1930344575522505
head 9.69124608067137 -2.0583287453463197 0.08173810257324993
lclavicle -1.0848463539996987e-15 -4.2459799921178907e-16
lhumerus -33.44551969737704 1.6755813317529502 84.73251272073219
lradius 23.285838947387354
lwrist 7.9358181575577715
lhand -27.212274725327063 23.15649783719993
lfingers nan
lthumb -0.8678917477827588 52.77532168904661
rclavicle -1.1258105358091941e-15 -4.677430539228589e-16
rhumerus -27.906618392989856 -18.395705601472642 -77.82361423220173
rradius 29.282480865230955
rwrist 3.7611011064456696
rhand -17.453875358642133 1.0
rfingers nan
rthumb 9.106410037350388 -7.609012661767146
107
root 1.2600888750876207 17.92885656264115 52.38377396747449 -3.277756874087366 1.7871983191821035 -3.3383174869570267
lfemur -11.996162323159549 -3.2837577046406463 -19.163787146789886
ltibia 26.986251425734096
lfoot -6.551979540095883 0.6015692219407156
ltoes -10.78190128954983
rfemur -7.367112199682851 2.466626328842144 25.59920047138887
rtibia 41.71438025066355
rfoot -2.6753068409377363 -10.666884909888502
rtoes 7.439435433460163
lowerback 1.0 0.5725989854540071 2.9066294950537133
upperback 0.23160159817366796 1.5393753221688882 1.4712842995049895
thorax -4.829997336357586 0.8065905819150377 -0.35203314993712276
lowerneck -16.490261261405156 -3.349284200940242 -1.5439344328058413
upperneck 21.366981911240945 -4.3745740885068845 1.3331700465600136
head 9.666278643106981 -2.050953236633443 0.1441019016286024
lclavicle -1.0858324415660765e-15 -4.2468296749055594e-16
lhumerus -33.66764580680112 1.8040471654339134 84.63691268479029
lradius 23.90023465476529
lwrist 7.9224755197021075
lhand -27.202801096251463 23.128634605298576
lfingers nan
lthumb -0.8571601414973105 52.78291267230285
rclavicle -1.1267186086118611e-15 -4.671336506983959e-16
rhumerus -27.889070432828685 -18.061945178759714 -77.91539921694674
rradius 29.320817128790992
rwrist 4.013148577757285
rhand -17.47139459440947 1.0
rfingers nan
rthumb 9.125381913137536 -7.578588373818756
108
root 1.2454894683695947 17.93406315729707 52.07925521241713 -3.2529563017836978 1.9030778505111323 -2.882333380887067
lfemur -9.99692695688319 -3.4958983857698684 -20.166466773821384
ltibia 24.75296055361931
lfoot -6.199245116605403 -0.48082514923694586
ltoes -10.378266967378117
rfemur -8.85264605211236 2.2302272362911983 24.904528732022296
rtibia 44.58741964164583
rfoot -3.240993340843737 -10.655035706347366
rtoes 8.015744593988597
lowerback 1.0 0.401562076593137 2.4215096770210556
upperback 0.22032134386920005 1.29107609373232 1.4789646215704106
thorax -4.856847573493601 0.6849128428476551 -0.14399830944062475
lowerneck -16.562105647795274 -3.3346044869641864 -1.5123463773180432
upperneck 21.25929345321053 -4.358420441850396 1.461129707313341
head 9.633025948075417 -2.037669953656808 0.20308099444718408
lclavicle -1.0856499322397187e-15 -4.2390107715262993e-16
lhumerus -33.68208053269662 1.7812570833939774 84.51999644885909
lradius 24.516324762058158
lwrist 7.79645235790301
lhand -27.18293029248946 23.11779103533049
lfingers nan
lthumb -0.8417207876872959 52.80095712879325
rclavicle -1.1276805107015962e-15 -4.668694250109152e-16
rhumerus -27.8904725279091 -17.80737559462623 -78.05458731514044
rradius 29.329164977022387
rwrist 4.168873264480499
rhand -17.454718167748865 1.0
rfingers nan
rthumb 9.10636011906993 -7.645190196677715
109
root 1.2298253360356366 17.931674086915127 50.96374433554425 -3.3291948019691784 1.8257743694572675 -2.083665808535791
lfemur -7.996865511685827 -3.7939054111272665 -21.556867430951424
ltibia 23.77506184773261
lfoot -7.0045215490696355 -0.7842937627166138
ltoes -9.470758741349645
rfemur -10.87151422628223 1.797555317322245 23.710989085236033
rtibia 47.4911568864193
rfoot -4.112437585420086 -9.994689540131102
rtoes 8.225567473971005
lowerback 1.0 0.22033054648291545 1.6981907499826683
upperback 0.2226901118724099 0.9231637246258215 1.4023774833646894
thorax -4.880140018255051 0.49656741067034915 0.164651682303253
lowerneck -16.64521014240759 -3.310949111389541 -1.464300234734118
upperneck 21.14695161726999 -4.328907551101565 1.5636927246661132
head 9.606221509827517 -2.019073103266205 0.2529219165418279
lclavicle -1.0852032482471402e-15 -4.2237825732596115e-16
lhumerus -33.45846138253822 1.6649040330800657 84.41141653166648
lradius 25.111703122088514
lwrist 7.617703657799947
lhand -27.193907195438275 23.091673625190186
lfingers nan
lthumb -0.83306026436781 52.82776647571947
rclavicle -1.1352166017162386e-15 -4.704458535119322e-16
rhumerus -27.895770784668763 -17.631757706010905 -78.23613325301102
rradius 29.296455443549924
rwrist 4.058726351508435
rhand -17.475967633955975 1.0
rfingers nan
rthumb 9.119657821928788 -7.640959279267657
110
root 1.2332406265628868 17.926755218838885 50.63330001264003 -3.374432201304254 1.7104945257110082 -1.1957690938145866
lfemur -5.948387803781945 -4.134697523862146 -22.940126542767402
ltibia 23.632435435219186
lfoot -7.560312159673105 -0.1890260721438718
ltoes -8.857344172451636
rfemur -13.473285460481854 1.3176796982779213 22.462925252455555
rtibia 50.263997703148
rfoot -5.1961794499780165 -8.853334884146683
rtoes 8.06497380055955
lowerback 1.0 -9.20136640382152e-05 0.9269352610000052
upperback 0.2347934531185112 0.4951943914122531 1.3113188147872712
thorax -4.888519392773365 0.2797373401965196 0.5373109227156356
lowerneck -16.746984357321654 -3.2756352872277494 -1.4189235135095335
upperneck 21.048855466542122 -4.280760529366521 1.6301463918173504
head 9.594016869969225 -1.9941774558312666 0.29106042635138024
lclavicle -1.0841743012153053e-15 -4.1997566326110815e-16
lhumerus -32.99064589042771 1.4486768282977145 84.33219616666898
lradius 25.672994361460713
lwrist 7.445443828504886
lhand -27.1784398443574 23.141955641970018
lfingers nan
lthumb -0.8195365880743478 52.882564251634655
rclavicle -1.1468156534178708e-15 -4.761948691108162e-16
rhumerus -27.91023345474139 -17.504845754004677 -78.4367947159997
rradius 29.221149021109085
rwrist 4.013409362000771
rhand -17.450151006321306 1.0
rfingers nan
rthumb 9.101202577661322 -7.703177703241374
111
root 1.2477834970573232 17.914573126220063 50.60640677673277 -3.447680506952291 1.561117581226545 -0.028336473079003
lfemur -3.7440911396508536 -4.484629252279576 -24.40877088307176
ltibia 23.78831516135147
lfoot -7.979492337454936 -0.018732702573851956
ltoes -8.218468919973354
rfemur -16.497689552930254 0.9313466624086799 21.102302456283425
rtibia 52.62310643309884
rfoot -6.3212643469779115 -7.530135267725488
rtoes 7.582617543168885
lowerback 1.0 -0.27040140770265897 -0.09186843226554253
upperback 0.24931994075999014 -0.07007161044621446 1.1564876759654168
thorax -4.888330754492586 0.00010213343902254479 1.0314180759574931
lowerneck -16.86571539485997 -3.221626194939132 -1.3962156043343334
upperneck 20.975068893690164 -4.203996212650514 1.651354646450749
head 9.593787648707982 -1.9601419489242686 0.3179926704111389
lclavicle -1.083503728872855e-15 -4.1759492709731776e-16
lhumerus -32.32140801773639 1.1246326315741197 84.2751062845853
lradius 26.17979111436179
lwrist 7.272844555590586
lhand -27.17148920910656 23.176345638529337
lfingers nan
lthumb -0.786991849297709 52.95504151449286
rclavicle -1.160745921462882e-15 -4.83086996010369e-16
rhumerus -27.940733759480384 -17.450123817084783 -78.65458945254284
rradius 29.115148171361685
rwrist 3.968495502541797
rhand -17.471175188433172 1.0
rfingers nan
rthumb 9.114664691690654 -7.687193571536306
112
root 1.255164610979505 17.895119472744145 49.7069247652502 -3.5001884947197683 1.0649729840680866 0.6232612868048935
lfemur -1.3805233560699568 -4.6736688267180115 -25.17326537302368
ltibia 23.903106684809856
lfoot -7.678195760645416 0.8847595274143176
ltoes -8.222147185942841
rfemur -19.254103404841796 0.8254883900659697 20.533744607296413
rtibia 53.94439399680337
rfoot -7.291165405707036 -6.182733215210344
rtoes 6.818344174144575
lowerback 1.0 -0.4686326747755013 -0.6919795759860761
upperback 0.2619458774812121 -0.4676284047228443 1.08377302332983
thorax -4.881673125376102 -0.2042240159940576 1.472149804896568
lowerneck -16.980038652929814 -3.153779177511953 -1.4007945453541626
upperneck 20.938404814795415 -4.103737376424781 1.623255275902621
head 9.600780632527774 -1.9189441944341472 0.33263357413791467
lclavicle -1.0846693486204166e-15 -4.1626695597907106e-16
lhumerus -31.490794154872244 0.6431943892755153 84.22198380021143
lradius 26.618097395013212
lwrist 7.0504754552538795
lhand -27.094239706391942 23.276206683219144
lfingers nan
lthumb -0.719178592130794 53.035410246860636
rclavicle -1.1777065409531053e-15 -4.911491910907166e-16
rhumerus -28.00048213413829 -17.51249901153214 -78.8912273007815
rradius 28.998462323030456
rwrist 3.7872759751686575
rhand -17.455850669071825 1.0
rfingers nan
rthumb 9.097541093074591 -7.7260332122756745
